<?xml version="1.0" encoding="utf-8"?>
<!-- Generator: Adobe Illustrator 23.0.0, SVG Export Plug-In . SVG Version: 6.00 Build 0)  -->
<svg version="1.1"
	 id="Layer_1" xmlns:cc="http://creativecommons.org/ns#" xmlns:dc="http://purl.org/dc/elements/1.1/" xmlns:inkscape="http://www.inkscape.org/namespaces/inkscape" xmlns:rdf="http://www.w3.org/1999/02/22-rdf-syntax-ns#" xmlns:sodipodi="http://sodipodi.sourceforge.net/DTD/sodipodi-0.dtd" xmlns:svg="http://www.w3.org/2000/svg"
	 xmlns="http://www.w3.org/2000/svg" xmlns:xlink="http://www.w3.org/1999/xlink" x="0px" y="0px" viewBox="0 0 120 120"
	 style="enable-background:new 0 0 120 120;" xml:space="preserve">
<style type="text/css">
	.st0{fill:#F5C443;}
	.st1{fill:#FFFFFF;}
</style>
<path class="st0" d="M104.9,106.8H15.1c-0.9,0-1.6-0.7-1.6-1.6V22.3c0-0.9,0.7-1.6,1.6-1.6h89.7c0.9,0,1.6,0.7,1.6,1.6v82.8
	C106.5,106,105.8,106.8,104.9,106.8z"/>
<rect x="19.6" y="87.3" class="st1" width="12.7" height="12.7"/>
<rect x="36.6" y="87.3" class="st1" width="12.7" height="12.7"/>
<rect x="53.6" y="87.3" class="st1" width="12.7" height="12.7"/>
<rect x="70.7" y="87.3" class="st1" width="12.7" height="12.7"/>
<rect x="87.7" y="87.3" class="st1" width="12.7" height="12.7"/>
<rect x="19.6" y="70.6" class="st1" width="12.7" height="12.7"/>
<rect x="36.6" y="70.6" class="st1" width="12.7" height="12.7"/>
<rect x="53.6" y="70.6" class="st1" width="12.7" height="12.7"/>
<rect x="70.7" y="70.6" class="st1" width="12.7" height="12.7"/>
<rect x="87.7" y="70.6" class="st1" width="12.7" height="12.7"/>
<rect x="19.6" y="54.2" class="st1" width="12.7" height="12.7"/>
<rect x="36.6" y="54.2" class="st1" width="12.7" height="12.7"/>
<rect x="53.6" y="54.2" class="st1" width="12.7" height="12.7"/>
<rect x="70.7" y="54.2" class="st1" width="12.7" height="12.7"/>
<rect x="87.7" y="54.2" class="st1" width="12.7" height="12.7"/>
<g>
	<path class="st0" d="M41.7,33.9c-3.6,0-6.5-2.9-6.5-6.5V17.1c0-3.5,3-6.4,6.5-6.4s6.5,2.9,6.5,6.4v10.2
		C48.2,30.9,45.3,33.9,41.7,33.9z"/>
	<path class="st1" d="M41.7,13.2c2.2,0,4,1.7,4,3.9v10.2c0,2.3-1.9,4-4,4c-2.1,0-4-1.7-4-4V17.1C37.6,15,39.5,13.2,41.7,13.2
		 M41.7,8.2c-5,0-9,4-9,8.9v10.2c0,5,4.1,9,9,9s9-4.1,9-9V17.1C50.7,12.2,46.6,8.2,41.7,8.2L41.7,8.2z"/>
</g>
<g>
	<path class="st0" d="M78.3,33.9c-3.7,0-6.5-2.9-6.5-6.5V17.1c0-3.6,2.9-6.4,6.5-6.4c3.5,0,6.5,3,6.5,6.4v10.2
		C84.9,30.9,81.9,33.9,78.3,33.9z"/>
	<path class="st1" d="M78.3,13.2c2,0,4,1.7,4,3.9v10.2c0,2.3-2,4-4,4c-2.3,0-4-1.7-4-4V17.1C74.3,15,76.1,13.2,78.3,13.2 M78.3,8.2
		c-5,0-9,4-9,8.9v10.2c0,5.1,4,9,9,9c4.9,0,9-4.1,9-9V17.1C87.4,12.3,83.2,8.2,78.3,8.2L78.3,8.2z"/>
</g>
</svg>
