<svg xmlns="http://www.w3.org/2000/svg" viewBox="0 0 381.06 191.58"><defs><style>.cls-1{fill:#fff;}.cls-2{fill:#0069af;}.cls-3{fill:#1d1d1b;}</style></defs><title>NHS_MerseyCare_Logo_Colour</title><g id="Layer_2" data-name="Layer 2"><g id="Layer_1-2" data-name="Layer 1"><rect class="cls-1" x="238.31" y="0.45" width="140.65" height="56.8"/><path class="cls-2" d="M149.28,133.33h3.06V121.42h0l6.09,11.91h3.91V117.4h-3.06v11.91h-.05l-6.07-11.91h-3.93v15.93Zm16.64,0h3.2v-7h6.39v7h3.2V117.4h-3.2v6.44h-6.39V117.4h-3.2v15.93Zm25.34-15.64a12.22,12.22,0,0,0-3.81-.57c-2.81,0-5.57,1.31-5.57,4.87,0,5.27,7,4,7,7,0,1.44-1.62,2.05-2.83,2.05a7.59,7.59,0,0,1-3.6-1l-.3,2.88a13.93,13.93,0,0,0,4.08.61c3.22,0,6-1.32,6-4.81,0-5.34-7-4.18-7-6.94a2.21,2.21,0,0,1,2.51-2.21,8.28,8.28,0,0,1,3.24.68l.3-2.63Zm10.18,15.64h3.2v-7H210v-2.51h-5.38v-3.93h5.66V117.4h-8.86v15.93Zm10.39-5.8a6.15,6.15,0,0,0,12.3,0,6.15,6.15,0,1,0-12.3,0Zm3.19-.36c0-1.76,1-3.49,2.95-3.49s3,1.68,3,3.49-.61,4.06-3,4.06-2.95-2.12-2.95-4.06Zm22.3-5.59h-3.06v5.75c0,1.5-.48,3.9-2.69,3.9-2,0-2-1.94-2-3.38v-6.27h-3.05V129c0,2.65,1.2,4.61,4,4.61a4.91,4.91,0,0,0,3.86-1.87h0v1.6h2.9V121.58Zm3.15,11.75h3.06v-5.75c0-1.51.48-3.9,2.69-3.9,2,0,2,1.94,2,3.37v6.28h3.06v-7.42c0-2.65-1.21-4.61-4-4.61a4.39,4.39,0,0,0-3.85,1.87h0v-1.59h-2.9v11.75Zm16.39-5.91c0-1.58.55-3.74,2.53-3.74s2.74,2.1,2.74,3.74-.66,3.81-2.69,3.81-2.58-2.19-2.58-3.81Zm5.39,5.91h3V116.21h-3v6.73h-.05a4.2,4.2,0,0,0-3.52-1.64c-3.6,0-4.93,2.88-4.93,6.12s1.33,6.18,4.93,6.18A4.36,4.36,0,0,0,262.2,132h.05v1.32Zm6.73-8.51a6.14,6.14,0,0,1,3.63-1.28c1.8,0,2.65.64,2.65,2.53h-1.69a9.32,9.32,0,0,0-3.95.69,3.45,3.45,0,0,0-2,3.35c0,2.24,2,3.49,4.11,3.49a4.21,4.21,0,0,0,3.63-2h0a17.15,17.15,0,0,0,.14,1.76h2.69c-.06-.91-.11-1.73-.13-2.62s0-1.76,0-3v-1.51c0-3.46-1.48-5-5.06-5a10.48,10.48,0,0,0-4.09.89l.09,2.63Zm1.55,5.11c0-1.8,2-2,3.4-2h1.33a3.91,3.91,0,0,1-.64,2.42,2.6,2.6,0,0,1-2.15,1.05c-1.09,0-1.94-.44-1.94-1.44Zm11.53-.14a3.45,3.45,0,0,0,3.72,3.81,8.18,8.18,0,0,0,2.26-.27l-.09-2.42a2.7,2.7,0,0,1-1.39.32c-1.17,0-1.44-.94-1.44-1.94v-5.48h2.71v-2.23h-2.71v-3.34l-3.06,1v2.36H279.8v2.23h2.26v6Zm7.94,3.54h3.06V121.58H290v11.75Zm0-13.9h3.06v-2.92H290v2.92Zm5.53,8.1a6.15,6.15,0,0,0,12.3,0,6.15,6.15,0,1,0-12.3,0Zm3.19-.36c0-1.76,1-3.49,2.95-3.49s3,1.68,3,3.49-.61,4.06-3,4.06-2.95-2.12-2.95-4.06Zm11.51,6.16h3v-5.75c0-1.51.48-3.9,2.7-3.9,2,0,2,1.94,2,3.37v6.28H321v-7.42c0-2.65-1.21-4.61-4-4.61a4.41,4.41,0,0,0-3.86,1.87h0v-1.59h-2.9v11.75Zm23.46,0h3.2V119.91h4.56V117.4H329.13v2.51h4.56v13.42Zm7.49,0h3.06V129c0-1.69,0-4.8,2.49-4.8a3.13,3.13,0,0,1,1.37.25v-3.08a3.4,3.4,0,0,0-.94-.09,3.61,3.61,0,0,0-3.22,3h0v-2.67h-2.72v11.75Zm19.61-11.75h-3.06v5.75c0,1.5-.48,3.9-2.69,3.9-2,0-2-1.94-2-3.38v-6.27H350V129c0,2.65,1.21,4.61,4,4.61a4.91,4.91,0,0,0,3.86-1.87h0v1.6h2.9V121.58Zm10.34.16a13.86,13.86,0,0,0-3.33-.44c-2.4,0-4.61,1.12-4.61,3.65,0,4.25,5.31,2.67,5.31,5,0,1.14-1.23,1.44-2,1.44a6.75,6.75,0,0,1-3-.78l-.18,2.51a13.59,13.59,0,0,0,3.47.5c2.49,0,4.93-1.09,4.93-3.83,0-4.25-5.32-3.06-5.32-4.93,0-1,1-1.3,1.8-1.3a7.47,7.47,0,0,1,2.74.5l.21-2.3Zm3.95,8a3.45,3.45,0,0,0,3.72,3.81,8.18,8.18,0,0,0,2.26-.27l-.09-2.42a2.71,2.71,0,0,1-1.4.32c-1.16,0-1.43-.94-1.43-1.94v-5.48h2.71v-2.23h-2.71v-3.34l-3.06,1v2.36h-2.26v2.23h2.26v6Z"/><path class="cls-3" d="M149,102.64h5.46V79.28l.08-.08,7.65,23.44h5.45l7.66-23.44h.08v23.44h5.45V74.23H171.7l-6.76,21.53h-.08L158.1,74.23H149v28.41Zm41.8-12.53c.25-2.81,1.8-4.93,4.85-4.93s4.27,2.28,4.44,4.93ZM203.73,97a14.17,14.17,0,0,1-7,2.11c-3.38,0-5.74-1.91-6-5.29h14.5c0-7.33-2.2-12.66-10-12.66-6.51,0-9.73,5-9.73,11.07,0,6.88,4,10.87,11,10.87a14.4,14.4,0,0,0,7.21-1.67V97Zm5.94,5.61h5.46V95c0-3,0-8.55,4.43-8.55a5.51,5.51,0,0,1,2.45.45v-5.5a6.06,6.06,0,0,0-1.67-.16c-3.26,0-5.5,3.3-5.74,5.25h-.08V81.68h-4.85v21ZM238.21,82a24.92,24.92,0,0,0-6-.78c-4.27,0-8.22,2-8.22,6.51,0,7.58,9.48,4.77,9.48,8.88,0,2-2.19,2.56-3.58,2.56a12,12,0,0,1-5.37-1.38l-.33,4.48a24.49,24.49,0,0,0,6.19.89c4.44,0,8.79-1.95,8.79-6.84,0-7.57-9.48-5.45-9.48-8.79,0-1.79,1.75-2.32,3.21-2.32a13.39,13.39,0,0,1,4.89.9l.37-4.11Zm9.11,8.14c.25-2.81,1.79-4.93,4.85-4.93s4.27,2.28,4.43,4.93ZM260.27,97a14.17,14.17,0,0,1-7,2.11c-3.38,0-5.74-1.91-6-5.29h14.49c0-7.33-2.19-12.66-10-12.66-6.51,0-9.73,5-9.73,11.07,0,6.88,4,10.87,10.95,10.87a14.43,14.43,0,0,0,7.21-1.67V97Zm9.48-15.35h-6l8,22a3.42,3.42,0,0,1-3.55,3.75,8.08,8.08,0,0,1-2.8-.37l-.37,4a13.73,13.73,0,0,0,3.87.57c5.7,0,7-4.56,8.71-9.2l7.85-20.8h-5.53L274.88,97h-.08l-5.05-15.31ZM321,97.47a15.74,15.74,0,0,1-6.23,1.18c-6.07,0-9.65-4.35-9.65-10.13s3.67-10.3,9.53-10.3a11.72,11.72,0,0,1,6.14,1.51l.41-4.81a18.84,18.84,0,0,0-6.43-1.18c-9.65,0-15.59,5.46-15.59,15.19s6.39,14.2,15.59,14.2a29.24,29.24,0,0,0,6.47-.89L321,97.47Zm5-10a11,11,0,0,1,6.48-2.28c3.21,0,4.72,1.14,4.72,4.52h-3a16.62,16.62,0,0,0-7.05,1.22,6.17,6.17,0,0,0-3.58,6c0,4,3.62,6.23,7.33,6.23a7.48,7.48,0,0,0,6.47-3.62h.08a24.32,24.32,0,0,0,.25,3.13h4.8c-.12-1.63-.2-3.09-.24-4.68s-.09-3.13-.09-5.25V90c0-6.18-2.64-8.83-9-8.83a18.74,18.74,0,0,0-7.29,1.59l.16,4.68Zm2.77,9.12c0-3.22,3.62-3.62,6.07-3.62h2.36a7,7,0,0,1-1.14,4.31,4.64,4.64,0,0,1-3.83,1.87c-2,0-3.46-.77-3.46-2.56Zm18.89,6.06h5.45V95c0-3,0-8.55,4.44-8.55a5.47,5.47,0,0,1,2.44.45v-5.5a6.06,6.06,0,0,0-1.67-.16c-3.25,0-5.49,3.3-5.74,5.25h-.08V81.68h-4.84v21Zm18.85-12.53c.25-2.81,1.79-4.93,4.85-4.93s4.27,2.28,4.43,4.93ZM379.46,97a14.17,14.17,0,0,1-7,2.11c-3.38,0-5.74-1.91-6-5.29H381c0-7.33-2.2-12.66-10-12.66-6.51,0-9.73,5-9.73,11.07,0,6.88,4,10.87,10.95,10.87a14.43,14.43,0,0,0,7.21-1.67V97Z"/><path class="cls-2" d="M381,57.69V0H237.76V57.69ZM295.36,5.57,285.47,52H270l-9.76-32.13h-.13L253.57,52H241.8l10-46.43h15.58l9.56,32.2H277l6.55-32.2Zm44.39,0L330.05,52h-12.5l4.15-19.89H306.92L302.77,52h-12.5L300,5.57h12.5L308.8,23.33h14.77l3.68-17.76Zm35.91,1.26-3,9.25A23.55,23.55,0,0,0,362.35,14c-5,0-9,.72-9,4.45,0,6.58,18.12,4.13,18.12,18.23,0,12.84-12,16.17-22.8,16.17a52.13,52.13,0,0,1-14.44-2.41L337.21,41c2.47,1.6,7.42,2.66,11.5,2.66,3.88,0,10-.73,10-5.52,0-7.45-18.12-4.66-18.12-17.76,0-12,10.57-15.57,20.8-15.57,5.75,0,11.16.6,14.31,2.06Z"/><path class="cls-3" d="M11.18,186.8a14.48,14.48,0,0,1-3.28.45c-4.66,0-7.9-2.33-7.9-7.2s3-7.69,7.9-7.69a9.33,9.33,0,0,1,3.26.6L11,175.39a5.91,5.91,0,0,0-3.11-.76c-3,0-4.83,2.27-4.83,5.22S4.83,185,7.9,185a7.9,7.9,0,0,0,3.16-.6Z"/><path class="cls-3" d="M17.92,176.13a5.32,5.32,0,0,1,5.57,5.63,5.25,5.25,0,0,1-5.57,5.49,5.25,5.25,0,0,1-5.55-5.49A5.32,5.32,0,0,1,17.92,176.13Zm0,9c2.13,0,2.68-1.9,2.68-3.68,0-1.62-.86-3.15-2.68-3.15s-2.66,1.57-2.66,3.15C15.26,183.19,15.82,185.11,17.92,185.11Z"/><path class="cls-3" d="M25.61,176.38h2.58v1.49h0a3.76,3.76,0,0,1,3.16-1.74A3.09,3.09,0,0,1,34.52,178a3.64,3.64,0,0,1,3.32-1.88c2.62,0,3.37,1.8,3.37,4.17V187H38.44v-6.33c0-1,0-2.39-1.59-2.39-1.83,0-2.06,2.19-2.06,3.57V187H32v-6.33c0-1,0-2.39-1.59-2.39-1.84,0-2.06,2.19-2.06,3.57V187H25.61Z"/><path class="cls-3" d="M44,176.38h2.57v1.49h0a3.74,3.74,0,0,1,3.15-1.74A3.11,3.11,0,0,1,52.86,178a3.64,3.64,0,0,1,3.32-1.88c2.62,0,3.36,1.8,3.36,4.17V187H56.78v-6.33c0-1,0-2.39-1.59-2.39-1.84,0-2.06,2.19-2.06,3.57V187H50.36v-6.33c0-1,0-2.39-1.59-2.39-1.83,0-2.06,2.19-2.06,3.57V187H44Z"/><path class="cls-3" d="M72.08,187H69.46v-1.44h0a4.45,4.45,0,0,1-3.49,1.69c-2.52,0-3.61-1.77-3.61-4.17v-6.7h2.76v5.67c0,1.3,0,3.06,1.8,3.06,2,0,2.43-2.17,2.43-3.53v-5.2h2.77Z"/><path class="cls-3" d="M74.92,176.38h2.62v1.44h0a4,4,0,0,1,3.49-1.69c2.51,0,3.61,1.78,3.61,4.17V187H81.91v-5.67c0-1.3,0-3.05-1.79-3.05-2,0-2.44,2.16-2.44,3.53V187H74.92Z"/><path class="cls-3" d="M87.58,171.8h2.77v2.64H87.58Zm0,4.58h2.77V187H87.58Z"/><path class="cls-3" d="M94.16,178.4h-2v-2h2v-2.12l2.77-.89v3h2.45v2H96.93v4.95c0,.91.24,1.76,1.29,1.76a2.52,2.52,0,0,0,1.26-.29l.09,2.18a7.13,7.13,0,0,1-2,.25,3.12,3.12,0,0,1-3.36-3.44Z"/><path class="cls-3" d="M105.69,184.14h0l2.56-7.76h2.8l-4,10.54c-.88,2.35-1.52,4.66-4.41,4.66a6.89,6.89,0,0,1-2-.29l.18-2a4,4,0,0,0,1.43.19,1.73,1.73,0,0,0,1.79-1.9l-4.06-11.16h3Z"/><path class="cls-3" d="M119,176.94a9.43,9.43,0,0,1,3.69-.81c3.24,0,4.58,1.34,4.58,4.48V182c0,1.07,0,1.88,0,2.66s.06,1.55.13,2.37H125a13.12,13.12,0,0,1-.12-1.58h0a3.81,3.81,0,0,1-3.28,1.83c-1.88,0-3.72-1.13-3.72-3.15a3.14,3.14,0,0,1,1.82-3,8.49,8.49,0,0,1,3.57-.62h1.52c0-1.71-.76-2.28-2.39-2.28a5.58,5.58,0,0,0-3.28,1.15Zm3.24,8.29a2.36,2.36,0,0,0,1.94-.95,3.55,3.55,0,0,0,.57-2.19h-1.19c-1.24,0-3.08.21-3.08,1.84C120.43,184.84,121.2,185.23,122.19,185.23Z"/><path class="cls-3" d="M129.94,176.38h2.62v1.44h0a4,4,0,0,1,3.49-1.69c2.51,0,3.61,1.78,3.61,4.17V187h-2.77v-5.67c0-1.3,0-3.05-1.79-3.05-2,0-2.44,2.16-2.44,3.53V187h-2.76Z"/><path class="cls-3" d="M149.62,185.81h-.05a3.93,3.93,0,0,1-3.25,1.44c-3.26,0-4.46-2.68-4.46-5.59s1.2-5.53,4.46-5.53a3.76,3.76,0,0,1,3.17,1.49h0v-6.09h2.77V187h-2.68Zm-2.54-.7c1.83,0,2.43-1.94,2.43-3.45s-.7-3.38-2.47-3.38-2.29,2-2.29,3.38S145.26,185.11,147.08,185.11Z"/><path class="cls-3" d="M161.12,172.61h4.62l3.43,10.91h0l3.42-10.91h4.62V187h-2.76V175.12h0L170.57,187H167.8l-3.87-11.88,0,0V187h-2.77Z"/><path class="cls-3" d="M188.86,186.41a7.38,7.38,0,0,1-3.65.84c-3.51,0-5.55-2-5.55-5.51,0-3.07,1.63-5.61,4.93-5.61,3.94,0,5,2.71,5,6.42H182.3a2.77,2.77,0,0,0,3,2.68,7.15,7.15,0,0,0,3.53-1.07ZM187,180.65c-.08-1.34-.7-2.49-2.24-2.49a2.4,2.4,0,0,0-2.46,2.49Z"/><path class="cls-3" d="M191.81,176.38h2.62v1.44h0a4,4,0,0,1,3.48-1.69c2.52,0,3.61,1.78,3.61,4.17V187H198.8v-5.67c0-1.3,0-3.05-1.8-3.05-2,0-2.43,2.16-2.43,3.53V187h-2.76Z"/><path class="cls-3" d="M205.31,178.4h-2v-2h2v-2.12l2.77-.89v3h2.45v2h-2.45v4.95c0,.91.25,1.76,1.3,1.76a2.55,2.55,0,0,0,1.26-.29l.08,2.18a7.11,7.11,0,0,1-2,.25,3.13,3.13,0,0,1-3.37-3.44Z"/><path class="cls-3" d="M212.9,176.94a9.48,9.48,0,0,1,3.7-.81c3.23,0,4.57,1.34,4.57,4.48V182c0,1.07,0,1.88.05,2.66s.06,1.55.12,2.37h-2.43a11.57,11.57,0,0,1-.13-1.58h0a3.8,3.8,0,0,1-3.28,1.83c-1.88,0-3.71-1.13-3.71-3.15a3.13,3.13,0,0,1,1.81-3,8.52,8.52,0,0,1,3.57-.62h1.53c0-1.71-.76-2.28-2.39-2.28a5.59,5.59,0,0,0-3.29,1.15Zm3.24,8.29a2.33,2.33,0,0,0,1.94-.95,3.55,3.55,0,0,0,.58-2.19h-1.2c-1.24,0-3.07.21-3.07,1.84C214.39,184.84,215.15,185.23,216.14,185.23Z"/><path class="cls-3" d="M224,171.53h2.76V187H224Z"/><path class="cls-3" d="M235.61,172.61h2.89v5.81h5.77v-5.81h2.89V187h-2.89v-6.31H238.5V187h-2.89Z"/><path class="cls-3" d="M258.77,186.41a7.38,7.38,0,0,1-3.65.84c-3.51,0-5.55-2-5.55-5.51,0-3.07,1.63-5.61,4.93-5.61,3.94,0,5.05,2.71,5.05,6.42h-7.34a2.77,2.77,0,0,0,3,2.68,7.15,7.15,0,0,0,3.53-1.07Zm-1.86-5.76c-.08-1.34-.7-2.49-2.25-2.49a2.4,2.4,0,0,0-2.45,2.49Z"/><path class="cls-3" d="M262.19,176.94a9.43,9.43,0,0,1,3.69-.81c3.24,0,4.58,1.34,4.58,4.48V182c0,1.07,0,1.88,0,2.66s.06,1.55.13,2.37h-2.44a13.12,13.12,0,0,1-.12-1.58h0a3.8,3.8,0,0,1-3.28,1.83c-1.88,0-3.71-1.13-3.71-3.15a3.13,3.13,0,0,1,1.81-3,8.49,8.49,0,0,1,3.57-.62H268c0-1.71-.77-2.28-2.4-2.28a5.58,5.58,0,0,0-3.28,1.15Zm3.24,8.29a2.35,2.35,0,0,0,1.94-.95,3.55,3.55,0,0,0,.58-2.19h-1.2c-1.24,0-3.07.21-3.07,1.84C263.68,184.84,264.44,185.23,265.43,185.23Z"/><path class="cls-3" d="M273.24,171.53H276V187h-2.77Z"/><path class="cls-3" d="M279.82,178.4h-2v-2h2v-2.12l2.77-.89v3H285v2h-2.45v4.95c0,.91.24,1.76,1.3,1.76a2.48,2.48,0,0,0,1.25-.29l.09,2.18a7.13,7.13,0,0,1-2.05.25,3.12,3.12,0,0,1-3.36-3.44Z"/><path class="cls-3" d="M286.94,171.53h2.76v6.29h0a4,4,0,0,1,3.34-1.69c2.52,0,3.61,1.78,3.61,4.17V187h-2.76v-5.67c0-1.3,0-3.05-1.79-3.05-2,0-2.44,2.16-2.44,3.53V187h-2.76Z"/><path class="cls-3" d="M313.25,175.25a7.47,7.47,0,0,0-2.93-.62,2,2,0,0,0-2.27,2c0,2.49,6.32,1.44,6.32,6.27,0,3.16-2.5,4.35-5.41,4.35a12.39,12.39,0,0,1-3.69-.56l.27-2.59a7,7,0,0,0,3.26.88c1.09,0,2.56-.55,2.56-1.85,0-2.75-6.32-1.61-6.32-6.38,0-3.21,2.5-4.39,5-4.39a10.88,10.88,0,0,1,3.44.51Z"/><path class="cls-3" d="M325.26,186.41a7.42,7.42,0,0,1-3.66.84c-3.5,0-5.54-2-5.54-5.51,0-3.07,1.63-5.61,4.93-5.61,3.93,0,5.05,2.71,5.05,6.42H318.7a2.77,2.77,0,0,0,3,2.68,7.18,7.18,0,0,0,3.53-1.07Zm-1.86-5.76c-.08-1.34-.7-2.49-2.25-2.49a2.4,2.4,0,0,0-2.45,2.49Z"/><path class="cls-3" d="M328.26,176.38h2.46v2.41h0a3.25,3.25,0,0,1,2.91-2.66,2.74,2.74,0,0,1,.84.09V179a2.83,2.83,0,0,0-1.23-.23c-2.25,0-2.25,2.81-2.25,4.34V187h-2.77Z"/><path class="cls-3" d="M335.05,176.38h3l2.64,7.74h0l2.56-7.74H346L342.1,187H339Z"/><path class="cls-3" d="M347.75,171.8h2.77v2.64h-2.77Zm0,4.58h2.77V187h-2.77Z"/><path class="cls-3" d="M360.31,178.67a4.12,4.12,0,0,0-1.88-.39c-1.71,0-2.8,1.36-2.8,3.36s.93,3.47,2.87,3.47a5.75,5.75,0,0,0,2.12-.5l.12,2.29a8.87,8.87,0,0,1-2.76.35c-3.48,0-5.24-2.37-5.24-5.61,0-3.07,1.82-5.51,5.14-5.51a9.22,9.22,0,0,1,2.68.35Z"/><path class="cls-3" d="M371.1,186.41a7.38,7.38,0,0,1-3.65.84c-3.51,0-5.55-2-5.55-5.51,0-3.07,1.63-5.61,4.93-5.61,3.94,0,5.05,2.71,5.05,6.42h-7.34a2.77,2.77,0,0,0,3,2.68,7.15,7.15,0,0,0,3.53-1.07Zm-1.86-5.76c-.08-1.34-.7-2.49-2.25-2.49a2.4,2.4,0,0,0-2.45,2.49Z"/><path class="cls-3" d="M380.36,178.61a6.8,6.8,0,0,0-2.48-.45c-.74,0-1.63.26-1.63,1.17,0,1.69,4.81.62,4.81,4.46,0,2.47-2.21,3.46-4.46,3.46a12.26,12.26,0,0,1-3.13-.45l.16-2.27a6.15,6.15,0,0,0,2.73.7c.7,0,1.81-.27,1.81-1.3,0-2.08-4.81-.66-4.81-4.5,0-2.29,2-3.3,4.17-3.3a12.4,12.4,0,0,1,3,.4Z"/></g></g></svg>